MOVIE/YEAR~>Delta Farce (2007)

Plot Summary~>Action | Adventure | Comedy
When three small town National Guardsmen bound for Iraq are unknowingly dropped into Mexico, their confusion leads them to "liberate" a small village from a band of corrupt Federales

MEDIA Info~>
General
Complete name                    : Delta Farce (2007)[Tabsman DVD
Format                           : AVI
Format/Info                      : Audio Video Interleave
File size                        : 658 MiB
Duration                         : 1h 23mn
Overall bit rate                 : 1 102 Kbps

Video
ID                               : 0
Format                           : MPEG-4 Visual
Format profile                   : Simple@L3
Format settings, BVOP            : No
Format settings, QPel            : No
Format settings, GMC             : No warppoints
Format settings, Matrix          : Default (H.263)
Codec ID                         : XVID
Codec ID/Hint                    : XviD
Duration                         : 1h 23mn
Bit rate                         : 833 Kbps
Width                            : 768 pixels
Height                           : 432 pixels
Display aspect ratio             : 16/9
Frame rate                       : 23.976 fps
Resolution                       : 24 bits
Colorimetry                      : 4:2:0
Scan type                        : Progressive
Bits/(Pixel*Frame)               : 0.105
Stream size                      : 497 MiB (76%)
Writing library                  : XviD 1.1.0 (UTC 2005-11-22)

Audio
ID                               : 1
Format                           : MPEG Audio
Format version                   : Version 1
Format profile                   : Layer 3
Codec ID                         : 55
Codec ID/Hint                    : MP3
Duration                         : 1h 23mn
Bit rate mode                    : Constant
Bit rate                         : 256 Kbps
Channel(s)                       : 2 channels
Sampling rate                    : 48.0 KHz
Resolution                       : 16 bits
Video delay                      : 24ms
Stream size                      : 153 MiB (23%)
Alignment                        : Split accross interleaves
Interleave, duration             : 24 ms (0.58 video frame)

ScreenShots 
http://bayimg.com/AAeLKAacF